<?xml version="1.0" encoding="UTF-8"?>
<svg xmlns="http://www.w3.org/2000/svg" version="1.1" viewBox="0 0 210.8 130.5">
  <!-- Generator: Adobe Illustrator 29.2.1, SVG Export Plug-In . SVG Version: 2.1.0 Build 116)  -->
  <defs>
    <style>
      .st0 {
        fill: #1d1d1b;
      }

      .st1 {
        fill: #b65534;
      }
    </style>
  </defs>
  <g id="Livello_2">
    <g id="Livello_1-2">
      <path class="st0" d="M43.7,130.4c-.1,0-.2-.1-.2-.2v-9.8c0-.1.1-.2.2-.2h1c.1,0,.2.1.2.2v8.8h2.1c0,0,.2.1.2.2v.9c0,.1,0,.2-.2.2h-3.3,0Z"/>
      <path class="st0" d="M49.9,127.4h1.8l-.9-5.7s-.9,5.7-.9,5.7ZM51.7,120.1c.1,0,.2,0,.2.2l1.7,9.8c0,.1-.1.2-.2.2h-1c-.1,0-.2-.1-.2-.2l-.2-1.5h-2.2l-.2,1.5c0,.1-.1.2-.2.2h-1c-.1,0-.2-.1-.2-.2l1.7-9.8c0-.2.1-.2.2-.2h1.7,0Z"/>
      <path class="st0" d="M61.6,127.5c0-1.1-.8-1.7-1.5-1.7h-.7v3.3h.7c.7,0,1.5-.5,1.5-1.6M59.5,124.5h.4c.7,0,1.5-.4,1.5-1.6h0c0-1.3-.8-1.6-1.5-1.6h-.4v3.2ZM58.3,130.4c-.1,0-.2-.1-.2-.2v-9.8c0-.1.1-.2.2-.2h1.6c1.5,0,2.9.9,2.9,2.7v.3c0,.7-.2,1.5-1.1,2.1.8.2,1.3,1.1,1.3,2.3h0c0,1.9-1.4,3-2.9,3h-1.9,0Z"/>
      <path class="st0" d="M68,127.7v-4.8c0-1.1-.3-1.6-1.1-1.6s-1.1.4-1.1,1.6v4.8c0,1.1.3,1.6,1.1,1.6s1.1-.4,1.1-1.6M69.4,122.7v5.1c0,1.5-.8,2.7-2.5,2.7s-2.5-1.2-2.5-2.7v-5.1c0-1.6.8-2.7,2.5-2.7s2.5,1.2,2.5,2.7"/>
      <path class="st0" d="M74.7,126.1v-5.7c0-.1.1-.2.2-.2h1c.1,0,.2.1.2.2v9.8c0,.1-.1.2-.2.2h-.9c0,0-.2,0-.2-.2l-2.2-5.6v5.5c0,.1-.1.2-.2.2h-1c-.1,0-.2-.1-.2-.2v-9.8c0-.1.1-.2.2-.2h.9c0,0,.2,0,.2.2,0,0,2.2,5.8,2.2,5.8Z"/>
      <path class="st0" d="M78.8,121.4h-1.2c0,0-.2,0-.2-.2v-.9c0,0,0-.2.2-.2h3.8c0,0,.2,0,.2.2v.9c0,.1,0,.2-.2.2h-1.2v8.8c0,.1-.1.2-.2.2h-1c-.1,0-.2-.1-.2-.2v-8.8Z"/>
      <path class="st0" d="M83.4,127.4h1.8l-.9-5.7-.9,5.7h0ZM85.8,118.6s0,0,0,.2,0,0,0,.1l-.5.6s0,0-.2,0,0,0-.2,0l-2-.9s0-.1,0-.2,0,0,0-.1l.6-.7c0,0,.1,0,.2,0s0,0,.1,0l1.9,1.1h0ZM85.2,120.1c.1,0,.2,0,.2.2l1.7,9.8c0,.1-.1.2-.2.2h-1c-.1,0-.2-.1-.2-.2l-.2-1.5h-2.2l-.2,1.5c0,.1-.1.2-.2.2h-1c-.1,0-.2-.1-.2-.2l1.7-9.8c0-.2.1-.2.2-.2h1.7,0Z"/>
      <path class="st0" d="M94.1,122.9c0-1.1-.8-1.5-1.5-1.5h-.6v7.7h.6c.7,0,1.5-.4,1.5-1.5v-4.7h0ZM92.7,120.1c1.7,0,2.9,1.2,2.9,2.7v4.8c0,1.6-1.2,2.7-2.9,2.7h-1.8c-.1,0-.2-.1-.2-.2v-9.8c0-.1.1-.2.2-.2h1.8Z"/>
      <path class="st0" d="M98.6,129.1h2.1c0,0,.2.1.2.2v.9c0,.1,0,.2-.2.2h-3.3c-.1,0-.2-.1-.2-.2v-9.8c0-.1.1-.2.2-.2h3.3c0,0,.2,0,.2.2v.9c0,.1,0,.2-.2.2h-2.1v3.6h1.2c0,0,.2,0,.2.2v.9c0,.1,0,.2-.2.2h-1.2v2.9h0Z"/>
      <path class="st0" d="M102.7,130.4c-.1,0-.2-.1-.2-.2v-9.8c0-.1.1-.2.2-.2h1c.1,0,.2.1.2.2v8.8h2.1c0,0,.2.1.2.2v.9c0,.1,0,.2-.2.2h-3.3,0Z"/>
      <path class="st0" d="M107.8,130.4c-.1,0-.2-.1-.2-.2v-9.8c0-.1.1-.2.2-.2h1c.1,0,.2.1.2.2v8.8h2.1c0,0,.2.1.2.2v.9c0,.1,0,.2-.2.2h-3.3,0Z"/>
      <path class="st0" d="M114,127.4h1.8l-.9-5.7-.9,5.7h0ZM115.8,120.1c.1,0,.2,0,.2.2l1.7,9.8c0,.1-.1.2-.2.2h-1c-.1,0-.2-.1-.2-.2l-.2-1.5h-2.2l-.2,1.5c0,.1-.1.2-.2.2h-1c-.1,0-.2-.1-.2-.2l1.7-9.8c0-.2.1-.2.2-.2h1.7,0Z"/>
      <path class="st0" d="M125.6,123.1c0-1.2-.8-1.7-1.5-1.7h-.6v5.1h.6c.7,0,1.5-.6,1.5-1.7v-1.6h0ZM124.2,120.1c1.5,0,2.8,1,2.8,2.8v2.1c0,1.8-1.4,2.8-2.8,2.8h-.6v2.5c0,.1-.1.2-.2.2h-1c-.1,0-.2-.1-.2-.2v-9.8c0-.1.1-.2.2-.2h1.8Z"/>
      <path class="st0" d="M129.3,127.4h1.8l-.9-5.7-.9,5.7h0ZM131.1,120.1c.1,0,.2,0,.2.2l1.7,9.8c0,.1-.1.2-.2.2h-1c-.1,0-.2-.1-.2-.2l-.2-1.5h-2.2l-.2,1.5c0,.1-.1.2-.2.2h-1c-.1,0-.2-.1-.2-.2l1.7-9.8c0-.2.1-.2.2-.2h1.7,0Z"/>
      <path class="st0" d="M136.4,121.3c-.7,0-.9.5-.9,1.3,0,2.4,3.7,1.8,3.7,5.3s-.9,2.6-2.4,2.6c-1.4,0-2.6-.6-2.7-2.6,0-.1.1-.2.2-.2h1c.1,0,.2.1.2.2,0,.7.1,1.4,1.2,1.4s1-1.1,1-1.3c0-2.4-3.7-1.8-3.7-5.2s.3-2.7,2.4-2.7,2.4,1.8,2.4,2.6-.1.2-.2.2h-.9c-.1,0-.2-.1-.2-.2,0-.8-.3-1.3-1-1.3"/>
      <path class="st0" d="M141.4,121.4h-1.2c-.1,0-.2,0-.2-.2v-.9c0,0,.1-.2.2-.2h3.9c.1,0,.2,0,.2.2v.9c0,.1-.1.2-.2.2h-1.2v8.8c0,.1-.1.2-.2.2h-1c-.1,0-.2-.1-.2-.2v-8.8h0Z"/>
      <path class="st0" d="M146,127.4h1.8l-.9-5.7-.9,5.7h0ZM147.8,120.1c.1,0,.2,0,.2.2l1.7,9.8c0,.1-.1.2-.2.2h-1c-.1,0-.2-.1-.2-.2l-.2-1.5h-2.2l-.2,1.5c0,.1-.1.2-.2.2h-1c-.1,0-.2-.1-.2-.2l1.7-9.8c0-.2.1-.2.2-.2h1.7,0Z"/>
      <path class="st0" d="M157.7,128.1s0,0-.1,0h-.4c0,0-.1,0-.1,0l-1.5-3.9v6c0,.1-.1.2-.2.2h-1c-.1,0-.2-.1-.2-.2v-9.8c0-.1.1-.2.2-.2h1c0,0,.1,0,.2.1l1.8,4.9,1.8-4.9c0,0,.1-.1.2-.1h1c.1,0,.2.1.2.2v9.8c0,.1-.1.2-.2.2h-1c-.1,0-.2-.1-.2-.2v-6l-1.5,3.9h0Z"/>
      <path class="st0" d="M163.8,127.4h1.8l-.9-5.7-.9,5.7h0ZM165.6,120.1c.1,0,.2,0,.2.2l1.7,9.8c0,.1-.1.2-.2.2h-1c-.1,0-.2-.1-.2-.2l-.2-1.5h-2.2l-.2,1.5c0,.1-.1.2-.2.2h-1c-.1,0-.2-.1-.2-.2l1.7-9.8c0-.2.1-.2.2-.2h1.7,0Z"/>
      <path class="st0" d="M172.3,122.9c0-1.1-.8-1.5-1.5-1.5h-.6v7.7h.6c.7,0,1.5-.4,1.5-1.5v-4.7h0ZM170.9,120.1c1.6,0,2.9,1.2,2.9,2.7v4.8c0,1.6-1.2,2.7-2.9,2.7h-1.9c-.1,0-.2-.1-.2-.2v-9.8c0-.1.1-.2.2-.2h1.9Z"/>
      <path class="st0" d="M178.8,124.7v-1.6c0-1.2-.8-1.7-1.5-1.7h-.6v5.1h.6c.7,0,1.5-.6,1.5-1.7M179.3,127.1l1,3.1c0,.1-.1.2-.2.2h-.9c-.1,0-.2-.1-.2-.2l-.8-2.5c-.2,0-.4,0-.7,0h-.6v2.5c0,.1-.1.2-.2.2h-1c-.1,0-.2-.1-.2-.2v-9.8c0-.1.1-.2.2-.2h1.8c1.5,0,2.9,1,2.9,2.8v2.1c0,.9-.4,1.7-1,2.1"/>
      <path class="st0" d="M183.1,129.1h2.1c.1,0,.2.1.2.2v.9c0,.1-.1.2-.2.2h-3.3c-.1,0-.2-.1-.2-.2v-9.8c0-.1.1-.2.2-.2h3.3c.1,0,.2,0,.2.2v.9c0,.1-.1.2-.2.2h-2.1v3.6h1.2c.1,0,.2,0,.2.2v.9c0,.1-.1.2-.2.2h-1.2v2.9h0Z"/>
      <path class="st0" d="M191.5,130.4c-.1,0-.2,0-.2-.2l-1.7-9.8c0-.1.1-.2.2-.2h1c.1,0,.2.1.2.2l1.4,8.4,1.4-8.4c0-.1.1-.2.2-.2h1c.1,0,.2.1.2.2l-1.7,9.8c0,.1-.1.2-.2.2h-1.7,0Z"/>
      <path class="st0" d="M197.9,130.2c0,.1-.1.2-.2.2h-1c-.1,0-.2-.1-.2-.2v-9.8c0-.1.1-.2.2-.2h1c.1,0,.2.1.2.2v9.8Z"/>
      <path class="st0" d="M201.2,130.4c-.1,0-.2,0-.2-.2l-1.7-9.8c0-.1.1-.2.2-.2h1c.1,0,.2.1.2.2l1.4,8.4,1.4-8.4c0-.1.1-.2.2-.2h1c.1,0,.2.1.2.2l-1.7,9.8c0,.1-.1.2-.2.2h-1.7,0Z"/>
      <path class="st0" d="M206.9,127.4h1.8l-.9-5.7-.9,5.7h0ZM208.7,120.1c.1,0,.2,0,.2.2l1.7,9.8c0,.1-.1.2-.2.2h-1c-.1,0-.2-.1-.2-.2l-.2-1.5h-2.2l-.2,1.5c0,.1-.1.2-.2.2h-1c-.1,0-.2-.1-.2-.2l1.7-9.8c0-.2.1-.2.2-.2h1.7,0Z"/>
      <path class="st1" d="M3.5,123.2c0-1.2-.8-1.7-1.5-1.7h-.5v5.1h.5c.7,0,1.5-.6,1.5-1.7v-1.6ZM2.1,120.2c1.5,0,2.8,1,2.8,2.8v2.1c0,1.8-1.4,2.8-2.8,2.8h-.6v2.5c0,.1-.1.2-.2.2H.3c-.1,0-.2-.1-.2-.2v-9.8c0-.1.1-.2.2-.2,0,0,1.8,0,1.8,0Z"/>
      <path class="st1" d="M7.9,130.2c0,.1-.1.2-.2.2h-1c-.1,0-.2-.1-.2-.2v-9.8c0-.1.1-.2.2-.2h1c.1,0,.2.1.2.2,0,0,0,9.8,0,9.8Z"/>
      <path class="st1" d="M10.9,129.2h2.4c.1,0,.2.1.2.2v.9c0,.1-.1.2-.2.2h-3.7c-.1,0-.2-.1-.2-.2v-.8c0-.1,0-.2,0-.3l2.6-7.7h-2.4c-.1,0-.2,0-.2-.2v-.9c0,0,.1-.2.2-.2h3.6c.1,0,.2,0,.2.2v.7c0,.1,0,.2,0,.3l-2.6,7.8h0Z"/>
      <path class="st1" d="M16.3,129.2h2.5c.1,0,.2.1.2.2v.9c0,.1-.1.2-.2.2h-3.6c-.1,0-.2-.1-.2-.2v-.8c0-.1,0-.2,0-.3l2.5-7.7h-2.4c-.1,0-.2,0-.2-.2v-.9c0,0,.1-.2.2-.2h3.6c.1,0,.2,0,.2.2v.7c0,.1,0,.2,0,.3l-2.6,7.8h0Z"/>
      <path class="st1" d="M22,129.2h2.1c.1,0,.2.1.2.2v.9c0,.1-.1.2-.2.2h-3.3c-.1,0-.2-.1-.2-.2v-9.8c0-.1.1-.2.2-.2h3.3c.1,0,.2,0,.2.2v.9c0,.1-.1.2-.2.2h-2.1v3.6h1.2c.1,0,.2,0,.2.2v.9c0,.1-.1.2-.2.2h-1.2v2.9h0Z"/>
      <path class="st1" d="M29.3,124.8v-1.6c0-1.2-.8-1.7-1.5-1.7h-.5v5.1h.5c.7,0,1.5-.6,1.5-1.7M29.8,127.2l1,3.1c0,.1-.1.2-.2.2h-.9c-.1,0-.2-.1-.2-.2l-.8-2.5c-.2,0-.5,0-.7,0h-.6v2.5c0,.1-.1.2-.2.2h-1c-.1,0-.2-.1-.2-.2v-9.8c0-.1.1-.2.2-.2h1.8c1.5,0,2.9,1,2.9,2.8v2.1c0,.9-.4,1.7-1,2.1"/>
      <path class="st1" d="M33.6,130.2c0,.1-.1.2-.2.2h-1c-.1,0-.2-.1-.2-.2v-9.8c0-.1.1-.2.2-.2h1c.1,0,.2.1.2.2v9.8Z"/>
      <path class="st1" d="M36.8,127.5h1.8l-.9-5.7-.9,5.7h0ZM38.5,120.2c.1,0,.2,0,.2.2l1.7,9.8c0,.1-.1.2-.2.2h-1c-.1,0-.2-.1-.2-.2l-.2-1.5h-2.2l-.2,1.5c0,.1-.1.2-.2.2h-1c-.1,0-.2-.1-.2-.2l1.7-9.8c0-.2.1-.2.2-.2h1.7,0Z"/>
      <path class="st0" d="M23.3,98.8c-2.3,4.6-6.8,8.1-12.3,8.1S-1.3,101.4.3,91.5l1.1-7c.9-5.5,3.8-9.4,9.5-9.4s8.1,4.1,7.9,8.9c0,1.2-1.2,1.9-2.1,1.9-1,0-1.3-1.3-1.2-2.1.1-3.1-1.7-5.3-4.6-5.3s-5.4,2.1-6.1,6.5l-1.1,7c-1.2,7.5,3,11.5,7.3,11.5s7.4-2.4,9.3-6.2h0c.3-.7,1.4-1.6,2.4-1.1.9.5,1.1,1.7.7,2.6"/>
      <path class="st0" d="M33.9,99l.3-1.7v-.5c0,0,2.1-12.5,2.1-12.5.5-2.8-1.5-5.5-4.4-6-2.8-.5-5.5,1.5-6,4.3l-2.4,14.6c-.5,2.9,1.5,5.6,4.4,6,2.8.4,5.5-1.5,6-4.3M50.5,98.2c-.9,4.6-4.4,8.7-9.2,8.7s-4.4-1.2-5.9-3.4c-1.7,2.1-4.4,3.4-7,3.2h0c-.7,0-1.5-.1-2-.3-4-1.1-6.9-5.6-6.2-9.8l2.4-14.6c.8-4.4,5.4-7.9,10-7.2,4.4.8,7.9,5.5,7.2,9.9l-2.1,13h0c-.5,3.6,1.7,5.6,3.7,5.6,3,0,5.1-2.4,5.7-5.9.2-.7.8-1.8,2-1.7.9.2,1.5,1.2,1.4,2.2"/>
      <path class="st0" d="M76.1,98.6c-.8,4.4-4.3,8.4-8.8,8.4s-8.2-3.7-7-9.9h0c0,0,1.9-12,1.9-12,1.1-7.7-4.7-1.3-9.5-6.8-.6-.6.8.6.9-.3l-3.2,20.6h0c-.2,1-1.1,1.8-2,1.7-.7-.2-1.6-1.2-1.4-2.3h0c0,0,3.5-22.8,3.5-22.8h0c.1-.9,1-1.7,1.7-1.8.8,0,1.6.7,1.9,1.3,1.7,3.3,12.6-1,11.5,10.1,0,.7-.2,1.3-.2,1.9l-1.8,11.2h0c-.7,3.8,1.5,5.9,3.6,5.9s4.8-2.3,5.5-5.6c.2-.7.8-1.8,2-1.7,1,.2,1.5,1.2,1.3,2.3"/>
      <path class="st0" d="M76.5,70.9c0-1,1-2.3,2.2-2.3s2.3,1.2,2.3,2.3-1.3,2.2-2.3,2.2-2.2-1.1-2.2-2.2M89,98.3c-.8,4.5-4.4,8.6-9.1,8.6s-7.2-3-7.4-6.7v-1.1l3.5-22.2c.2-1,1.1-1.7,1.9-1.5,1.1.2,1.5,1.4,1.4,2.3l-3.5,21.9c-.2,2.2,1.8,4,4,4s5.1-2.4,5.7-5.7c.2-.7.8-1.9,2-1.7.9.2,1.7,1.1,1.4,2.3"/>
      <path class="st0" d="M116,98.4c-.9,4.6-4.4,8.6-9.1,8.6s-8.2-3.8-7-10.1h0c0,0,1.9-12.3,1.9-12.3.5-3.4-1.5-6-4.4-6s-5.2,2.1-6,6.5l-3.2,20c-.3,2.3-3.9,1.9-3.4-.5l4.4-27.1h0c.2-1.2,1.2-1.6,1.8-1.6.9,0,1.5.2,1.5.6l.3-.2c1.2-.7,2.8-1.1,4.5-1.1,5.1,0,8.5,4.7,7.8,9.9l-1.8,11.6h0c0,.5-.2,1.1-.2,1.7-.4,3.5,1.7,5.3,3.8,5.3,2.9,0,5.1-2.4,5.7-5.7.1-.7.8-1.8,1.9-1.7,1,.2,1.5,1.4,1.4,2.2"/>
      <path class="st0" d="M126.6,99l2.4-14.7c.4-2.8-1.5-5.5-4.4-6-2.8-.5-5.5,1.5-6,4.3l-2.4,14.6c-.4,2.9,1.5,5.6,4.4,6,2.8.4,5.5-1.5,6-4.3M130,99.6c-.7,4.2-4.8,7.3-8.9,7.2h0c-.7,0-1.5-.1-2.1-.3-4-1.1-6.9-5.6-6.2-9.8l2.4-14.6c.8-4.4,5.4-7.9,9.9-7.2,4.5.8,7.9,5.5,7.2,9.9l-2.4,14.7h0Z"/>
      <path class="st0" d="M159.5,97.8c-.9,4.4-4.3,8.3-8.8,8.3s-2.2-.3-3.1-.7h0c-1.2-.5-1.5-1.8-.7-2.8.6-1,1.6-.4,2.2-.2.6.2,1,.3,1.5.3,2.7,0,4.8-2.3,5.5-5.5.1-.7.8-1.9,1.9-1.7.9.2,1.6,1.1,1.4,2.3M133,104.4c-.7-.5-1.1-1.8-.5-2.7.5-1.1,1.8-.6,2.4-.2h0c8.5,5.2,14.6-4.4,10.9-9.3-1.8-2.6-4.7-4.4-6.6-8.1l-2.3,14.5c-.2,1.1-1.2,1.7-2.3,1.5-.9-.2-1.1-1.4-1-2.2l3.6-23.1h0c.2-.9,1-1.8,1.9-1.7,1.1,0,1.6,1.4,1.6,2.4.3,9.2,3.3,8.6,7.9,14.8,5.5,7.6-3.4,21.8-15.6,14.3"/>
      <path class="st0" d="M172.2,98.5c-.9,4.6-4.3,8.5-8.9,8.5s-8.2-3.8-7.1-10h0c0,0,3-18.5,3-18.5h0c0-.1.4.4.4.4h-1.1c-1.1,0-2-.7-2-1.7s1.1-1.7,2-1.7h1.4c0,0-.1.1-.3.4l.9-5.5c.2-1,1.1-1.6,1.9-1.5,1.1.2,1.5,1.5,1.4,2.3l-.8,4.7h0c0,.1-.4-.4-.3-.4h4.5c.9,0,2,.7,2,1.7s-.9,1.7-2,1.7h-4.8s0-.1.2-.4l-3.2,19.2h0c-.7,3.8,1.5,6,3.7,6s4.9-2.3,5.6-5.7c.2-.7.8-1.8,2-1.7.9.2,1.5,1.4,1.4,2.2"/>
      <path class="st0" d="M197.8,98.6c-.9,4.4-4.3,8.4-8.8,8.4s-8.2-3.7-7-9.9h0c0,0,1.9-12,1.9-12,1.1-7.7-4.7-1.3-9.6-6.8-.6-.6.8.6.9-.3l-3.2,20.6h0c-.2,1-1.1,1.8-2,1.7-.7-.2-1.6-1.2-1.4-2.3h0c0,0,3.5-22.8,3.5-22.8h0c.1-.9,1-1.7,1.7-1.8.9,0,1.6.7,1.9,1.3,1.6,3.3,12.6-1,11.5,10.1,0,.7-.2,1.3-.2,1.9l-1.8,11.2h0c-.7,3.8,1.5,5.9,3.6,5.9s4.8-2.3,5.5-5.6c.2-.7.8-1.8,2-1.7,1,.2,1.5,1.2,1.3,2.3"/>
      <path class="st0" d="M198.1,70.9c0-1,1-2.3,2.2-2.3s2.3,1.2,2.3,2.3-1.3,2.2-2.3,2.2-2.2-1.1-2.2-2.2M210.7,98.3c-.9,4.5-4.4,8.6-9.1,8.6s-7.2-3-7.4-6.7v-1.1l3.5-22.2c.2-1,1.1-1.7,1.9-1.5,1.1.2,1.5,1.4,1.4,2.3l-3.5,21.9c-.2,2.2,1.8,4,4,4s5.1-2.4,5.7-5.7c.2-.7.9-1.9,2-1.7.9.2,1.6,1.1,1.4,2.3"/>
    </g>
  </g>
  <g id="Livello_3">
    <path class="st1" d="M78.3,12.8c-3.5,0-5.7,2.7-6.5,5-.9,2.6-.9,6,0,10.7,1.5,7.1,4.2,13.2,8.1,18.1,1.9,2.3,4,4.4,6.4,6.1,6.1-6,6.9-16.5,4.8-25.4-1-4-2.3-7.1-4.2-9.5-2.3-2.9-5.5-4.9-8.3-5h-.3M73.5,60.5c-4.8,0-10-1.3-14.9-3.8-4.5-2.3-8.6-5.6-12.2-9.7-.5-.6-.5-1.6.1-2.1.6-.6,1.6-.5,2.1.1,3.4,3.8,7.2,6.9,11.4,9,7.8,4,16.4,4.6,22.4,1.5.5-.3,1.1-.6,1.5-.9-2.3-1.7-4.4-3.8-6.3-6.2-4.2-5.3-7.1-11.8-8.7-19.4-.7-3.3-1.4-8.1,0-12.3,1.5-4.4,5.5-7.2,9.8-7,3.7.2,7.8,2.5,10.6,6.1,2.2,2.8,3.7,6.2,4.8,10.6,2.3,9.5,1.3,20.8-5.2,27.7,2.5,1.4,5.1,2.4,7.6,2.8,6.3,1,11.9-1.7,13.8-6.4.3-.8,1.2-1.2,1.9-.9.8.3,1.2,1.2.9,2-2.4,6.1-9.4,9.5-17.1,8.3-3.2-.5-6.4-1.8-9.5-3.7-.9.7-1.8,1.2-2.8,1.8-3,1.6-6.6,2.3-10.3,2.3"/>
    <path class="st0" d="M118.7,6.7c-.8-.1-1.6.4-1.7,1.3l-6.1,38.8c-.1.8.4,1.6,1.3,1.7,0,0,.2,0,.2,0,.7,0,1.4-.5,1.5-1.3l6.1-38.8c.1-.8-.4-1.6-1.3-1.7"/>
    <path class="st0" d="M157.3,39.4l-28.6,6.5c-2.6.7-3.8,1.6-4.4,2.1-2.1,1.6-2.5,4.2-.9,6.6.7,1.1.3,1.5.2,1.7-.3.3-.8.6-1.3.4-.7-.2-.8-1-.9-1.4-.2-1.7-.7-6.8-5.9-6.4-.8,0-1.5.8-1.4,1.6,0,.8.8,1.5,1.6,1.4,1.8-.1,2.4.8,2.7,3.7.2,1.9,1.2,3.3,2.8,3.9.4.2.9.2,1.4.2,1.1,0,2.2-.5,3.1-1.3,1.5-1.4,1.6-3.5.3-5.5-1-1.6-.1-2.3.2-2.5.5-.4,1.4-1.1,3.3-1.6l28.5-6.5c.8-.2,1.3-1,1.1-1.8-.2-.8-1-1.3-1.8-1.1"/>
    <path class="st0" d="M123,7.9c1,0,2.2.8,3.3,1.5,1.1.6,2.1,1.3,3.3,1.6,1.2.3,2.6.2,3.9,0,1.3-.1,2.5-.2,3.3.1.7.3,1.3,1.2,1.9,2.2.6,1,1.3,2,2.3,2.8,1,.7,2.2,1,3.5,1.3,1.2.3,2.3.5,2.9,1.1.5.5.7,1.5.9,2.7s.4,2.4,1.1,3.4c.7,1,1.8,1.7,2.7,2.4.9.6,1.8,1.1,2.1,1.8.7,1.7,1.1,4,1.4,6.1v.2c0,.4.3.7.6.9.2.2.5.2.8.2s.2,0,.2,0c.1,0,.2,0,.4-.1.5-.3.8-.9.7-1.5v-.2c-.4-2.2-.8-4.6-1.6-6.6-.6-1.5-1.9-2.4-3.2-3.1-.8-.5-1.5-1-1.9-1.5h0c-.4-.6-.5-1.5-.7-2.4-.3-1.5-.5-3-1.6-4.1-1.1-1.1-2.6-1.5-4.2-1.8-1-.2-2-.5-2.6-.9-.6-.4-1.1-1.2-1.6-2-.7-1.2-1.6-2.5-3-3.2-1.4-.7-3.1-.5-4.7-.4-1.1.1-2.2.2-2.9,0-.8-.2-1.6-.7-2.6-1.3-1.4-.9-2.9-1.7-4.5-1.9-.7,0-1.4.5-1.4,1.3s.5,1.4,1.3,1.4"/>
    <path class="st0" d="M152.7,11.6C144.3,3.5,132.1-.7,119.2.1c-.4,0-.7.2-.9.5-.2.3-.4.6-.3,1,0,.4.2.7.4.9s.6.4,1,.3c12.1-.8,23.6,3.1,31.4,10.7,6.9,6.6,10.5,15.5,10.3,25,0,.4.1.7.4,1,.2.3.6.4.9.4h0c.2,0,.4,0,.6-.1.5-.2.8-.7.8-1.2.3-10.3-3.7-19.9-11.1-27"/>
    <path class="st0" d="M122.9,35.6c.5.2.9.5,1.2,1s.3,1,0,1.5c-.2.5-.5.9-1,1.2h0c-.5.2-1,.3-1.5,0s-.9-.5-1.2-1c-.5-1,0-2.2.9-2.7.3-.1.6-.2.9-.2s.4,0,.7.1M126.5,35.4c-1.1-2.3-4-3.3-6.3-2.2h0c-2.3,1.1-3.3,4-2.2,6.3.6,1.1,1.5,2,2.7,2.4.5.2,1,.3,1.6.3s1.4-.2,2.1-.5c2.3-1.1,3.3-4,2.2-6.3"/>
    <path class="st0" d="M140.7,21c.5.2.9.5,1.1,1,.5,1,0,2.2-.9,2.7-.5.2-1,.3-1.5,0s-.9-.5-1.1-1-.3-1,0-1.5c.2-.5.5-.9,1-1.1.3-.1.6-.2.9-.2s.4,0,.7.1M144.3,20.8c-1.1-2.3-4-3.3-6.3-2.2-1.1.5-2,1.5-2.4,2.7-.4,1.2-.3,2.5.2,3.6.6,1.1,1.5,2,2.7,2.4.5.2,1,.3,1.6.3s1.4-.2,2.1-.5c2.3-1.1,3.3-4,2.2-6.3"/>
    <path class="st1" d="M126.6,20.2l-.9-2,2-1,.9,1.8c0,0-.1.2-.1.3l-1.8.9h0ZM132.6,19.4l-.8-.3-1.8-3.8.5-1.2c.3-.8,0-1.6-.9-2-.8-.3-1.6,0-2,.9l-.4,1-3.7,1.8-1.1-.4c-.8-.3-1.7,0-2,.9-.3.8,0,1.6.8,2l1.2.5,1.6,3.4-.5,1.4c-.3.8,0,1.6.8,2,.2,0,.4.1.6.1.6,0,1.2-.4,1.4-1l.4-1.1,3.5-1.7,1.2.5c.2,0,.4.1.6.1.6,0,1.2-.4,1.4-1,.3-.8,0-1.6-.9-2"/>
    <path class="st1" d="M136.5,35.8l-1.1-1,.9-.9c.6-.6.6-1.5,0-2.1s-1.6-.6-2.1,0l-1.1,1.1-1.2-1.1c-.6-.5-1.6-.5-2.1.1-.6.6-.5,1.6.1,2.1l1.1,1-.9.9c-.6.6-.6,1.5,0,2.1.3.3.7.4,1.1.4s.8-.2,1.1-.4l1-1,1.2,1.1c.3.3.6.4,1,.4s.8-.2,1.1-.5c.6-.6.5-1.6-.1-2.1"/>
    <path class="st1" d="M144.6,36l2.4.2.2-2.4-2.4-.2-.2,2.4ZM148.4,39.3h-.1l-5.4-.4c-.8,0-1.5-.8-1.4-1.6l.4-5.4c0-.4.2-.8.5-1,.3-.3.7-.4,1.1-.4l5.4.4c.4,0,.8.2,1,.5.3.3.4.7.4,1.1l-.4,5.4c0,.8-.7,1.4-1.5,1.4"/>
  </g>
</svg>