<?xml version="1.0" encoding="UTF-8"?>
<svg id="Livello_2" data-name="Livello 2" xmlns="http://www.w3.org/2000/svg" viewBox="0 0 117.85 60.48">
  <defs>
    <style>
      .cls-1 {
        fill: #b65534;
      }

      .cls-2 {
        fill: #1d1d1b;
      }
    </style>
  </defs>
  <g id="Livello_1-2" data-name="Livello 1">
    <path class="cls-1" d="M32.36,12.75c-3.5,0-5.7,2.67-6.52,5-.93,2.65-.92,6.04.05,10.66,1.49,7.11,4.22,13.2,8.13,18.1,1.88,2.35,4.04,4.4,6.36,6.07,6.06-6.04,6.95-16.52,4.82-25.36-.98-4.05-2.31-7.07-4.21-9.49-2.27-2.9-5.54-4.85-8.34-4.97-.1,0-.2,0-.29,0M27.5,60.48c-4.83,0-10.01-1.28-14.87-3.81-4.49-2.34-8.61-5.61-12.25-9.72-.55-.62-.49-1.58.13-2.13.63-.56,1.58-.49,2.13.13,3.4,3.84,7.23,6.88,11.39,9.05,7.77,4.05,16.35,4.61,22.41,1.47.54-.28,1.05-.58,1.53-.9-2.3-1.73-4.44-3.81-6.31-6.16-4.21-5.28-7.14-11.79-8.73-19.36-.68-3.26-1.42-8.08.06-12.28,1.54-4.37,5.47-7.2,9.79-7.01,3.7.16,7.76,2.5,10.59,6.12,2.17,2.77,3.68,6.16,4.76,10.65,2.29,9.52,1.3,20.81-5.17,27.73,2.5,1.42,5.1,2.38,7.64,2.78,6.26.99,11.93-1.66,13.77-6.44.3-.78,1.18-1.17,1.95-.87.78.3,1.17,1.17.87,1.95-2.36,6.12-9.37,9.55-17.06,8.34-3.18-.5-6.44-1.77-9.51-3.65-.86.66-1.8,1.25-2.8,1.78-3.02,1.57-6.57,2.34-10.33,2.34"/>
    <path class="cls-2" d="M72.74,6.74c-.82-.13-1.6.43-1.73,1.26l-6.09,38.76c-.13.82.43,1.6,1.26,1.73.08.01.16.02.24.02.73,0,1.37-.53,1.49-1.28l6.09-38.76c.13-.82-.43-1.6-1.26-1.73"/>
    <path class="cls-2" d="M111.3,39.37l-28.59,6.54c-2.55.68-3.82,1.63-4.43,2.1-2.12,1.59-2.46,4.17-.88,6.56.73,1.11.32,1.51.16,1.66-.31.29-.79.6-1.32.4-.65-.24-.82-.96-.86-1.37-.17-1.68-.69-6.78-5.92-6.4-.83.06-1.46.79-1.39,1.62.06.83.8,1.46,1.62,1.39,1.75-.13,2.39.77,2.69,3.7.2,1.86,1.25,3.31,2.83,3.89.45.17.92.25,1.38.25,1.09,0,2.18-.45,3.07-1.3,1.5-1.44,1.6-3.49.27-5.51-1.04-1.57-.12-2.26.19-2.49.49-.37,1.4-1.06,3.32-1.57l28.53-6.53c.81-.19,1.32-1,1.14-1.81-.19-.81-1-1.32-1.81-1.14"/>
    <path class="cls-2" d="M77.07,7.88c1,.07,2.18.79,3.33,1.49,1.05.64,2.13,1.3,3.28,1.6,1.23.3,2.56.18,3.86.07,1.3-.12,2.53-.23,3.31.14.74.34,1.29,1.24,1.88,2.2.62,1,1.26,2.04,2.3,2.79,1.01.7,2.25.99,3.5,1.29,1.18.28,2.3.54,2.85,1.11.52.52.71,1.55.91,2.67.2,1.12.43,2.4,1.11,3.43.69,1.04,1.77,1.73,2.74,2.35.93.59,1.8,1.14,2.07,1.84.71,1.72,1.1,4.02,1.44,6.06l.03.17c.06.36.25.67.55.88.23.17.5.25.79.25.08,0,.16,0,.24-.02.12-.02.24-.06.36-.12.54-.26.84-.86.74-1.45l-.03-.2c-.37-2.17-.79-4.63-1.59-6.59-.58-1.5-1.94-2.36-3.16-3.14-.79-.51-1.54-.99-1.9-1.54,0,0,0,0,0,0-.38-.57-.54-1.47-.71-2.42-.27-1.46-.54-2.97-1.65-4.09-1.09-1.12-2.64-1.48-4.17-1.84-1.01-.24-1.97-.47-2.55-.86-.58-.42-1.05-1.18-1.55-2-.74-1.19-1.57-2.54-3.04-3.23-1.43-.68-3.09-.53-4.7-.38-1.06.1-2.16.19-2.95,0-.75-.2-1.61-.72-2.58-1.31-1.41-.86-2.87-1.74-4.52-1.86-.73-.05-1.39.51-1.44,1.26-.05.75.51,1.4,1.26,1.45"/>
    <path class="cls-2" d="M106.74,11.59C98.31,3.47,86.1-.71,73.26.1c-.36.02-.69.18-.93.45-.24.27-.37.63-.34.99.02.36.18.69.45.93.27.24.62.36.98.34,12.1-.77,23.55,3.14,31.44,10.73,6.87,6.61,10.51,15.48,10.26,24.98,0,.36.13.71.38.97.25.26.59.41.94.41h.03c.21,0,.42-.05.6-.14.46-.22.75-.68.77-1.18.26-10.27-3.68-19.85-11.1-27"/>
    <path class="cls-2" d="M76.96,35.56c.51.18.92.54,1.15,1.02.23.48.27,1.03.09,1.54-.18.51-.54.92-1.02,1.15h0c-.48.23-1.03.27-1.54.09-.51-.18-.92-.54-1.15-1.02-.48-1-.07-2.21.93-2.69.28-.13.58-.2.88-.2.22,0,.45.04.66.11M80.55,35.4c-1.14-2.34-3.97-3.32-6.31-2.18h0c-2.34,1.14-3.32,3.97-2.18,6.31.55,1.13,1.51,1.99,2.71,2.4.51.18,1.03.26,1.55.26.71,0,1.41-.16,2.06-.48,2.34-1.14,3.32-3.97,2.18-6.32"/>
    <path class="cls-2" d="M94.75,20.97c.51.18.92.54,1.15,1.02.48,1,.07,2.21-.93,2.69-.48.23-1.03.27-1.54.09-.51-.18-.92-.54-1.15-1.02-.23-.48-.27-1.03-.09-1.54.18-.51.54-.92,1.02-1.15.28-.13.58-.2.88-.2.22,0,.44.04.66.11M98.34,20.81c-1.14-2.34-3.97-3.32-6.31-2.18-1.13.55-1.99,1.51-2.4,2.7-.41,1.19-.34,2.47.21,3.61.55,1.13,1.51,1.99,2.71,2.4.51.18,1.03.26,1.55.26.7,0,1.4-.16,2.05-.48,2.34-1.14,3.32-3.97,2.18-6.32"/>
    <path class="cls-1" d="M80.64,20.21l-.95-1.98,1.98-.95.87,1.81c-.05.08-.1.17-.13.26l-1.76.85ZM86.67,19.42l-.78-.31-1.81-3.77.47-1.19c.31-.78-.08-1.65-.85-1.96-.78-.3-1.65.08-1.96.85l-.41,1.04-3.69,1.78-1.14-.45c-.77-.3-1.65.08-1.96.85-.31.78.08,1.65.85,1.96l1.17.46,1.63,3.39-.53,1.35c-.31.78.08,1.65.85,1.96.18.07.37.1.55.1.6,0,1.17-.36,1.41-.96l.44-1.11,3.47-1.67,1.2.47c.18.07.37.11.55.11.6,0,1.17-.36,1.41-.96.31-.78-.08-1.65-.85-1.96"/>
    <path class="cls-1" d="M90.54,35.84l-1.08-.96.93-.93c.59-.59.59-1.55,0-2.14-.59-.59-1.55-.59-2.14,0l-1.06,1.06-1.23-1.1c-.62-.55-1.58-.5-2.13.13-.55.62-.5,1.58.13,2.13l1.1.97-.86.86c-.59.59-.59,1.55,0,2.14.29.3.68.44,1.07.44s.77-.15,1.07-.44l.99-.99,1.22,1.08c.29.26.65.38,1,.38.42,0,.83-.17,1.13-.51.55-.62.5-1.58-.13-2.13"/>
    <path class="cls-1" d="M98.66,36.03l2.42.17.17-2.42-2.42-.17-.17,2.42ZM102.48,39.33s-.07,0-.11,0l-5.43-.39c-.83-.06-1.46-.78-1.4-1.61l.39-5.43c.03-.4.21-.77.52-1.03.3-.26.69-.39,1.1-.36l5.44.39c.4.03.77.21,1.03.52.26.3.39.7.36,1.1l-.39,5.43c-.06.8-.72,1.4-1.5,1.4"/>
  </g>
</svg>